<svg width="900" height="79" viewBox="0 0 900 79" fill="none" xmlns="http://www.w3.org/2000/svg">
<path d="M39.674 49.4075V0.142578H55.7576V47.3548C55.7576 50.6815 56.4661 51.4602 59.8671 51.4602H61.2133L63.1263 64.4842C61.9218 64.6258 56.9621 64.9797 53.9154 64.9797C45.1296 65.0505 39.674 61.936 39.674 49.4075Z" fill="white"/>
<path d="M162.82 19.3232L175.29 18.3323L176.495 22.0838C178.975 19.7479 183.368 17.4121 192.791 17.4121C209.016 17.4121 212.772 28.8081 212.772 41.5491C212.772 54.3608 208.662 65.6152 191.799 65.6152C184.359 65.6152 180.817 63.9164 178.833 62.0761V78.2854H162.749V19.3232H162.82ZM196.475 42.1861C196.475 36.7358 195.483 31.9934 188.54 31.9934C181.1 31.9934 178.904 35.8157 178.904 42.1861C178.904 48.5566 180.533 52.0957 188.54 52.0957C195.342 52.0249 196.475 47.5656 196.475 42.1861Z" fill="white"/>
<path d="M270.089 19.3229L282.559 18.3319L284.188 23.2159C286.243 20.4554 291.841 18.1196 298.501 17.8364V33.2671C287.802 33.3379 286.172 36.5231 286.172 42.8936V64.8362H270.089V19.3229Z" fill="white"/>
<path d="M302.964 17.8373H311.254L313.875 8.42315L326.275 5.7334V17.8373H336.407V33.2679H326.275V46.7167C326.275 49.9019 326.771 51.5299 331.801 51.5299H336.407V64.9079C333.998 65.0494 331.305 65.1202 328.259 65.1202C314.726 65.1202 310.262 60.8025 310.262 49.1233V33.3387H302.964V17.8373Z" fill="white"/>
<path d="M-0.000244141 18.4035H8.78553V17.4834C8.78553 5.80419 13.1784 0 28.2701 0C32.2379 0 32.9464 0.0707829 34.9303 0.212349V13.2364H30.4666C25.8611 13.2364 24.8692 14.3689 24.8692 17.3418V18.4035H34.9303V31.9938H24.7983V64.8371H8.78553V31.9938H-0.000244141V18.4035Z" fill="white"/>
<path d="M98.1293 50.9627C95.4369 52.5199 94.0907 52.8738 88.7767 52.8738C82.4708 52.8738 80.0618 50.6087 79.2824 46.8572H110.174C110.741 30.5064 109.395 17.27 88.7767 17.27C68.1585 17.27 63.7656 28.6661 63.7656 41.2654C63.7656 54.2187 68.0877 65.6855 88.7767 65.6855C96.9248 65.6855 102.026 64.199 107.482 60.6599L98.1293 50.9627ZM88.3516 30.5064C94.941 30.5064 95.4369 33.6209 95.7203 37.4431H79.2116C79.7784 32.9838 81.904 30.5064 88.3516 30.5064Z" fill="white"/>
<path d="M142.058 64.9074L134.193 53.6529L126.329 64.9074H108.332L125.195 40.912L109.891 19.3232H128.029L134.264 28.1003L140.499 19.3232H158.85L143.263 40.8412L160.126 64.9074H142.058Z" fill="white"/>
<path d="M216.101 41.4773C216.101 26.0466 223.187 17.3403 241.325 17.3403C259.534 17.3403 266.478 26.1174 266.478 41.4773C266.478 56.9079 259.463 65.685 241.325 65.685C223.187 65.7558 216.101 56.9079 216.101 41.4773ZM250.323 41.9728C250.323 36.1686 248.835 31.9216 241.325 31.9216C233.744 31.9216 232.327 36.1686 232.327 41.9728C232.327 47.7062 233.815 52.0239 241.325 52.0239C248.906 52.0239 250.323 47.777 250.323 41.9728Z" fill="white"/>
<path d="M645.457 58.9408C640.067 63.013 634.424 65.0076 625.412 65.0076C605.704 65.0076 601.829 54.1206 601.829 40.7404C601.829 27.5264 606.041 16.4731 625.244 16.4731C645.121 16.4731 645.794 30.1027 645.457 44.8126H611.347C611.936 52.126 614.968 56.6969 625.412 56.6969C632.908 56.6969 636.614 54.7854 640.236 52.2091L645.457 58.9408ZM624.991 25.0332C615.221 25.0332 612.189 29.5209 611.431 36.4188H636.193C635.772 29.7703 635.098 25.0332 624.991 25.0332Z" fill="white"/>
<path d="M576.2 65.0076C568.963 65.0076 561.385 63.5923 554.913 59.3466L560.022 51.8542C565.301 55.1842 571.602 56.5994 576.797 56.5994C584.46 56.5994 587.355 55.5171 587.355 50.8552C587.355 47.0257 584.715 46.2765 576.882 45.0277C565.472 43.2795 557.553 41.5312 557.553 30.2926C557.553 21.4681 562.747 16.4731 576.882 16.4731C584.29 16.4731 590.931 17.9716 595.614 20.6356L590.931 28.6276C587.44 26.7961 582.416 25.4641 577.137 25.4641C569.303 25.4641 567.345 27.2123 567.345 30.2926C567.345 34.0388 569.899 34.9545 577.137 36.12C588.973 38.0348 596.977 39.45 596.977 50.3557C596.977 61.0116 591.016 65.0076 576.2 65.0076Z" fill="white"/>
<path d="M539.317 59.4299C536.626 63.0096 531.498 65.0076 521.828 65.0076C507.955 65.0076 504.76 58.6806 504.76 50.7719C504.76 37.5353 512.327 33.7058 535.449 33.7058H537.804C537.635 28.1281 536.122 25.5473 526.789 25.5473C520.988 25.5473 516.111 27.7118 513.168 29.4601L508.039 21.8844C511.234 19.7199 518.97 16.4731 527.798 16.4731C544.194 16.4731 547.221 21.8844 547.221 35.121V50.7719C547.221 55.0177 547.557 55.6836 551.677 55.6836V64.0918C551.004 64.2583 549.743 64.2583 547.641 64.2583C542.848 64.2583 540.578 63.3426 539.317 59.4299ZM523.51 56.6826C533.6 56.6826 537.804 52.8532 537.804 44.112V41.6977H536.038C517.54 41.6977 514.009 43.779 514.009 50.0227C514.009 54.3517 516.027 56.6826 523.51 56.6826Z" fill="white"/>
<path d="M499.856 58.9408C494.665 63.013 489.231 65.0076 480.553 65.0076C461.574 65.0076 457.844 54.1206 457.844 40.7404C457.844 27.5264 461.899 16.4731 480.391 16.4731C499.531 16.4731 500.18 30.1027 499.856 44.8126H467.008C467.576 52.126 470.496 56.6969 480.553 56.6969C487.771 56.6969 491.34 54.7854 494.827 52.2091L499.856 58.9408ZM480.147 25.0332C470.739 25.0332 467.819 29.5209 467.09 36.4188H490.934C490.529 29.7703 489.88 25.0332 480.147 25.0332Z" fill="white"/>
<path d="M448.978 65.0085C440.353 65.0085 436.812 61.7604 436.812 52.0993V0.295898H447.253V50.9333C447.253 55.0143 447.98 56.3468 452.701 56.3468H454.608V64.8419C453.7 64.9252 451.43 65.0085 448.978 65.0085Z" fill="white"/>
<path d="M430.287 58.9408C424.897 63.013 419.254 65.0076 410.242 65.0076C390.533 65.0076 386.659 54.1206 386.659 40.7404C386.659 27.5264 390.87 16.4731 410.073 16.4731C429.95 16.4731 430.624 30.1027 430.287 44.8126H396.176C396.766 52.126 399.798 56.6969 410.242 56.6969C417.738 56.6969 421.444 54.7854 425.065 52.2091L430.287 58.9408ZM409.821 25.0332C400.051 25.0332 397.019 29.5209 396.261 36.4188H421.023C420.601 29.7703 419.928 25.0332 409.821 25.0332Z" fill="white"/>
<path d="M360.774 65.0065V19.1674L368.415 18.5872L369.423 23.8923C371.354 20.7424 377.064 18.2556 385.041 18.0898V27.7882C373.79 27.8711 370.599 33.0932 370.599 41.1337V65.0065H360.774Z" fill="white"/>
<path d="M885.262 2.74756C893.401 2.74761 900 9.34676 900 17.4858V59.5728C899.999 67.7113 893.4 74.3081 885.262 74.3081H685.645C677.506 74.3079 670.907 67.7113 670.906 59.5728V17.4858C670.906 9.34684 677.506 2.74771 685.645 2.74756H885.262ZM685.645 10.1978C681.62 10.1979 678.357 13.4617 678.357 17.4858V59.5728C678.358 63.5964 681.621 66.8578 685.645 66.8579H885.262C889.286 66.8579 892.549 63.5965 892.55 59.5728V17.4858C892.55 13.4616 889.286 10.1978 885.262 10.1978H685.645ZM821.303 25.936C825.151 25.9361 827.978 26.9359 829.782 28.936C831.587 30.9364 832.489 34.0899 832.489 38.395C832.489 42.6783 831.587 45.831 829.782 47.853C827.978 49.8533 825.151 50.854 821.303 50.854C817.389 50.854 814.529 49.8534 812.725 47.853C810.942 45.8309 810.051 42.6782 810.051 38.395C810.051 34.0899 810.942 30.9364 812.725 28.936C814.529 26.9357 817.389 25.936 821.303 25.936ZM875.895 31.8374H864.121L863.958 35.0015C865.132 34.4362 866.784 34.1529 868.915 34.1528C870.067 34.1528 871.177 34.2406 872.242 34.4146C873.308 34.5668 874.264 34.914 875.112 35.4575C875.96 35.9794 876.623 36.7844 877.102 37.8716C877.602 38.9586 877.852 40.426 877.852 42.2739C877.852 44.1437 877.591 45.6443 877.069 46.7749C876.569 47.9056 875.851 48.765 874.916 49.3521C873.981 49.9389 872.872 50.3302 871.59 50.5259C870.307 50.7433 868.905 50.852 867.383 50.8521C864.861 50.8521 862.762 50.5697 861.088 50.0044C859.414 49.4173 858.032 48.7649 856.945 48.0474L859.946 43.188C860.925 43.7315 862.012 44.2534 863.208 44.7534C864.404 45.2534 865.73 45.5034 867.187 45.5034C867.948 45.5034 868.644 45.4595 869.274 45.3726C869.905 45.2638 870.405 45.0033 870.774 44.5903C871.166 44.1555 871.361 43.4591 871.361 42.5024C871.361 41.5458 871.176 40.8504 870.807 40.4155C870.437 39.9807 869.937 39.7088 869.307 39.6001C868.698 39.4914 868.013 39.437 867.252 39.437C866.448 39.437 865.73 39.4914 865.1 39.6001C864.491 39.7088 863.925 39.8824 863.403 40.1216L858.021 38.5239L858.674 26.3257H875.895V31.8374ZM797.042 25.936C800.151 25.9361 802.488 26.4904 804.054 27.5991C805.619 28.6862 806.402 30.556 806.402 33.2085C806.402 34.4261 806.152 35.5355 805.652 36.5356C805.152 37.5141 804.445 38.4603 803.532 39.3735C802.619 40.2649 801.521 41.1998 800.238 42.1782L796.324 45.146H806.598V50.4946H787.388V45.4722L795.15 39.3403C796.39 38.362 797.357 37.5682 798.053 36.9595C798.77 36.3289 799.27 35.7852 799.553 35.3286C799.835 34.8503 799.978 34.3505 799.978 33.8286C799.978 33.3068 799.89 32.8823 799.716 32.5562C799.542 32.2304 799.194 31.9915 798.673 31.8394C798.173 31.6654 797.4 31.5786 796.356 31.5786C795.639 31.5786 794.857 31.654 794.009 31.8062C793.183 31.9366 792.389 32.1217 791.628 32.3608C790.889 32.5782 790.28 32.8283 789.802 33.1108L786.866 28.1538C787.823 27.6538 788.758 27.2407 789.671 26.9146C790.584 26.5884 791.617 26.349 792.77 26.1968C793.922 26.0229 795.346 25.936 797.042 25.936ZM844.882 25.936C847.991 25.936 850.329 26.4902 851.895 27.5991C853.46 28.6862 854.242 30.5562 854.242 33.2085C854.242 34.4261 853.992 35.5355 853.492 36.5356C852.992 37.5141 852.285 38.4603 851.372 39.3735C850.459 40.2649 849.361 41.1999 848.078 42.1782L844.164 45.146H854.438V50.4946H835.228V45.4722L842.99 39.3403C844.229 38.362 845.197 37.5683 845.893 36.9595C846.61 36.3289 847.111 35.7852 847.394 35.3286C847.676 34.8504 847.817 34.3503 847.817 33.8286C847.817 33.3068 847.731 32.8823 847.557 32.5562C847.383 32.2302 847.034 31.9915 846.513 31.8394C846.013 31.6654 845.241 31.5786 844.197 31.5786C843.48 31.5786 842.697 31.6539 841.849 31.8062C841.022 31.9366 840.229 32.1217 839.468 32.3608C838.729 32.5782 838.12 32.8282 837.642 33.1108L834.706 28.1538C835.663 27.6538 836.598 27.2407 837.511 26.9146C838.424 26.5884 839.457 26.349 840.609 26.1968C841.762 26.0228 843.186 25.936 844.882 25.936ZM712.686 32.4243H700.846V36.0122H712.359V42.0132H700.846V50.4937H694.095V26.3257H712.686V32.4243ZM738.235 50.4937H731.223L730.016 47.3628H719.71L718.503 50.4937H711.915L721.602 26.1626H728.483L738.235 50.4937ZM747.443 44.6548H758.825V50.4937H740.691V26.3257H747.443V44.6548ZM768.05 44.6548H779.432V50.4937H761.298V26.3257H768.05V44.6548ZM821.303 31.8062C819.585 31.8062 818.389 32.3174 817.715 33.3394C817.063 34.3395 816.736 36.025 816.736 38.395C816.736 40.7647 817.063 42.5039 817.715 43.6128C818.389 44.7 819.585 45.2437 821.303 45.2437C823.02 45.2436 824.195 44.6999 824.825 43.6128C825.477 42.5039 825.804 40.7647 825.804 38.395C825.804 36.025 825.477 34.3396 824.825 33.3394C824.195 32.3174 823.02 31.8062 821.303 31.8062ZM721.862 41.8179H727.863L724.862 34.1206L721.862 41.8179Z" fill="url(#paint0_linear_702_91)"/>
<defs>
<linearGradient id="paint0_linear_702_91" x1="670.906" y1="38.5278" x2="900" y2="38.5278" gradientUnits="userSpaceOnUse">
<stop offset="0.4375" stop-color="#028DAC"/>
<stop offset="1" stop-color="white"/>
</linearGradient>
</defs>
</svg>
